<svg width="447.61484134494447" height="302.5" viewBox="0 0 350 236.53147800434473" class="css-1j8o68f"><defs id="SvgjsDefs1504"><linearGradient id="SvgjsLinearGradient1511"><stop id="SvgjsStop1512" stop-color="#00ff8f" offset="0"></stop><stop id="SvgjsStop1513" stop-color="#00a1ff" offset="1"></stop></linearGradient><linearGradient id="SvgjsLinearGradient1514"><stop id="SvgjsStop1515" stop-color="#00ff8f" offset="0"></stop><stop id="SvgjsStop1516" stop-color="#00a1ff" offset="1"></stop></linearGradient></defs><g id="SvgjsG1505" featurekey="symbolFeature-0" transform="matrix(0.7775378097886452,0,0,0.7775378097886452,136.32613429365935,-2.8768875233609017)" fill="url(#SvgjsLinearGradient1511)"><path xmlns="http://www.w3.org/2000/svg" d="M16.3,38.1c0,8.2,6.3,15.2,14.2,15.7c0,0,0.1,0,0.1,0h37.1c0,0,0.1,0,0.1,0c8.8-0.6,15.7-8.2,15.7-17.2  c0-7.8-5.3-14.7-12.5-16.7c-1.6-9.3-9.7-16.2-19.3-16.2c-7,0-13.4,3.7-16.9,9.7c-0.6-0.1-1.3-0.2-1.9-0.2c-6,0-10.9,4.9-10.9,10.9  c0,0.7,0.1,1.4,0.2,2.1C18.6,28.9,16.3,33.4,16.3,38.1z M25.9,28.9c0.9-0.5,1.3-1.6,0.9-2.6c-0.3-0.7-0.4-1.5-0.4-2.3  c0-3.6,3-6.6,6.6-6.6c0.8,0,1.5,0.1,2.2,0.4c1,0.4,2.2-0.1,2.7-1.1c2.5-5.4,8-8.8,13.9-8.8c8,0,14.5,6,15.3,13.9  c0.1,1,0.8,1.7,1.8,1.9c6,1,10.5,6.6,10.5,12.9c0,6.7-5.3,12.5-11.7,13h-37c-5.5-0.3-10.1-5.6-10.1-11.4  C20.6,34.3,22.6,30.8,25.9,28.9z M50,59.6c-1.2,0-2.1,1-2.1,2.1v21.6c-2.6,0.9-4.5,3.3-4.6,6.2c-0.1,3.7,2.8,6.8,6.5,6.8l0.2,0  c3.6,0,6.6-2.9,6.7-6.5c0-1.8-0.6-3.5-1.8-4.8c-0.8-0.8-1.7-1.4-2.7-1.7V61.7C52.1,60.5,51.2,59.6,50,59.6z M50,92.1L50,92.1  c-1.4,0-2.5-1.2-2.4-2.5c0-1.3,1.1-2.4,2.4-2.4l0.1,0c0.7,0,1.3,0.3,1.7,0.8c0.4,0.5,0.7,1.1,0.7,1.7C52.4,91,51.3,92.1,50,92.1z   M29.5,79.4h5.3c4,0,7.2-3.2,7.2-7.2V61.7c0-1.2-1-2.1-2.1-2.1c-1.2,0-2.1,1-2.1,2.1v10.4c0,1.7-1.3,3-3,3h-5.3  c-0.9-2.6-3.4-4.6-6.3-4.6c-3.7,0-6.7,3-6.7,6.7s3,6.7,6.7,6.7C26.1,83.9,28.6,82,29.5,79.4z M20.7,77.2c0-1.3,1.1-2.4,2.4-2.4  c1.3,0,2.4,1.1,2.4,2.4s-1.1,2.4-2.4,2.4C21.8,79.7,20.7,78.6,20.7,77.2z M60.1,59.6c-1.2,0-2.1,1-2.1,2.1v10.4c0,4,3.2,7.2,7.2,7.2  h5.3c0.9,2.6,3.4,4.6,6.3,4.6c3.7,0,6.7-3,6.7-6.7s-3-6.7-6.7-6.7c-2.9,0-5.4,1.9-6.3,4.6h-5.3c-1.7,0-3-1.3-3-3V61.7  C62.2,60.5,61.3,59.6,60.1,59.6z M76.8,74.8c1.3,0,2.4,1.1,2.4,2.4s-1.1,2.4-2.4,2.4s-2.4-1.1-2.4-2.4S75.5,74.8,76.8,74.8z"></path></g><g id="SvgjsG1506" featurekey="nameFeature-0" transform="matrix(3.751339641498606,0,0,3.751339641498606,-11.404079522166048,41.67173621381537)" fill="#ffffff"><path d="M20.28 17.96 c-3.16 -0.48 -8.8 -1.04 -12.36 -1.36 c-0.08 3.12 -0.12 6.44 -0.16 9.92 l11.2 -0.2 c0.2 1.12 -0.36 0.88 0.04 2.04 l-11.24 -0.12 c0 3.8 0.08 7.72 0.16 11.76 c-1.64 -0.16 -3.24 0.32 -4.88 0 c0.2 -8.48 0.2 -17.04 0 -25.52 c2 0.16 10.72 0.36 17.6 -0.2 c0.2 1.2 -0.36 2.28 -0.36 3.68 z M20.604 36.12 c0 -4.2 4.88 -7.12 12.04 -7.56 c0 -3.24 -0.24 -6.6 -3.44 -6.6 c-2.08 0 -3.44 1.36 -3.44 3.08 c0 0.84 0 2.32 0.92 2.4 l-0.52 0.28 c-2.88 -0.2 -2.88 -2.16 -5.12 -1.84 c0.68 -2.84 3.48 -5.2 8.28 -5.2 c4.84 0 7.72 2.36 7.72 7.88 l0 11.44 l-1.72 0 c-0.24 -5.84 -2 -7.2 -2 -7.2 c-0.64 2.44 -2.64 7.76 -7.56 7.76 c-3 0 -5.16 -1.64 -5.16 -4.44 z M32.604 29.92 c-4.84 0.44 -7.28 2.72 -7.28 5.36 c0 1.8 1.12 2.68 2.44 2.68 c2.72 0 4.6 -3.64 4.84 -8.04 z M39.80799999999999 40 c0.32 -6.32 0.4 -11.12 0 -17.48 l1 -1.28 c-0.04 3.88 2.88 5.4 2.88 5.4 c0.52 -2.96 2.68 -5.96 6 -5.96 c2.4 0 4.52 1.28 4.52 4.6 c0 0.6 -0.16 1.84 -0.16 1.84 c-0.88 -0.08 -4 1.4 -4 1.4 l-0.28 -0.08 c1.08 -0.92 0.8 -5.36 -1.92 -5.4 c-2.4 0 -3.12 2.8 -3.36 7.24 c-0.16 2.92 -0.12 6.24 0.04 9.72 c-2.16 0.16 -2.84 -0.44 -4.72 0 z M55.651999999999994 21.24 c1.56 0.16 2.68 -0.36 4.68 0 c-0.12 6.24 -0.12 12.48 0 18.76 c-2.24 0.2 -3.08 -0.24 -4.68 0 c0.12 -6.28 0.12 -12.52 0 -18.76 z M55.971999999999994 14.079999999999998 c3 -1 3.28 0.72 4.08 0 l0 3.32 c-2.68 0.68 -3.4 -0.56 -4.08 0 l0 -3.32 z M70.816 39.12 c2.36 0 3.36 -1.24 3.36 -2.48 c0 -1.84 -1.84 -3.48 -4.04 -4.64 c-2.84 -1.48 -6.68 -2.84 -6.68 -6.16 c0 -2.8 2.44 -5.16 7.12 -5.16 c3.44 0 6.48 1.32 7.48 2.2 l-2 3.88 l-0.4 -0.04 c1.48 -2.04 -1.48 -4.6 -5 -4.6 c-2.48 0 -3.16 1.16 -3.16 2.2 c0 1.92 2 3.52 4.6 4.88 c2.6 1.4 6.16 2.72 6.16 5.84 c0 3.04 -3.08 5.52 -7.76 5.52 c-3.44 0 -6.4 -1.36 -7.8 -2.68 l1.88 -4.48 l0.4 0.12 c-1.48 2.4 2.44 5.6 5.84 5.6 z M83.94 40 c-2.44 0.12 -3.08 -0.48 -4.68 0 c0.44 -6.44 0.56 -19.96 0 -26.48 c1.56 -0.36 2.72 0.36 4.68 0 c-0.32 3.16 -0.48 8.32 -0.24 12.6 c0.64 -2.2 3.04 -5.44 5.96 -5.44 c3 0 6.76 1.88 6.64 8.24 c0 3.72 0 7.32 0.04 11.08 c-1.84 -0.4 -1.92 0 -4.68 0 c0.08 -3.96 -0.04 -7.88 -0.04 -11.84 c0 -3.16 -1.36 -5.12 -3.4 -5.12 c-2.68 0 -4.6 3.08 -4.6 7.2 c0 3.36 0.32 6.4 0.32 9.76 z"></path></g><g id="SvgjsG1507" featurekey="sloganFeature-0" transform="matrix(1.6601488725351397,0,0,1.6601488725351397,83.90430199744543,202.86365693777765)" fill="url(#SvgjsLinearGradient1514)"><path d="M11.44 8.98 c-1.08 -0.24 -2.88 -0.7 -4.18 -0.68 c-0.24 4.36 -0.26 7.26 0 11.7 c-0.8 0.16 -1.46 -0.28 -2.42 0 c0.2 -4.44 0.24 -7.34 0 -11.7 c-1.18 -0.02 -3.1 0.44 -4.18 0.68 c0.32 -0.68 0 -1.24 0.18 -1.84 c2 0.1 4 0.34 5.2 0.34 c1.14 0 3.18 -0.22 5.22 -0.34 c0.18 0.6 -0.12 1.22 0.18 1.84 z M18.741999999999997 17.16 c0.48 0.2 1.08 0.18 1.08 0.18 c-0.34 1.84 -1.88 2.94 -4.04 2.94 c-2.98 0 -4.84 -2.1 -4.84 -5.06 c0 -2.86 1.84 -4.86 4.66 -4.86 c2.58 0 4.22 1.7 4.14 4.72 l-6.32 0.88 c0.06 2.2 0.7 3.64 2.38 3.64 c0.82 0 1.96 -0.36 1.96 -1.72 c0 -0.26 0.02 -0.78 -0.4 -0.74 l0.28 -0.16 s0.64 -0.02 1.1 0.18 z M13.402 15.58 l0 0 l3.92 -1.08 c0.08 -0.52 0.12 -0.92 0.12 -1.52 c0.02 -1.36 -0.62 -2.14 -1.74 -1.94 c-1.26 0.24 -2.22 2.24 -2.3 4.54 z M26.824 16.42 c0.9 0.28 1.9 -0.4 2.54 0.36 c0 0 -0.48 3.5 -4.34 3.5 c-2.76 0 -4.62 -2.1 -4.62 -5 c0 -2.86 1.86 -4.88 4.62 -4.88 c2.18 0 3.9 1.28 4.26 3.24 c0 0 -2.58 0.58 -3.52 1.04 l1.1 -2.18 c-0.06 -1 -0.94 -1.4 -1.6 -1.4 c-1.5 0 -2.4 1.54 -2.4 4.2 c0 2.64 0.9 4.3 2.38 4.3 c0.66 0 1.76 -0.66 1.76 -2 c0 -0.38 0 -1 -0.46 -1.02 z M32.886 20 c-1.22 0.06 -1.54 -0.24 -2.34 0 c0.22 -3.22 0.28 -9.98 0 -13.24 c0.78 -0.18 1.36 0.18 2.34 0 c-0.16 1.58 -0.24 4.16 -0.12 6.3 c0.32 -1.1 1.52 -2.72 2.98 -2.72 c1.5 0 3.38 0.94 3.32 4.12 c0 1.86 0 3.66 0.02 5.54 c-0.92 -0.2 -0.96 0 -2.34 0 c0.04 -1.98 -0.02 -3.94 -0.02 -5.92 c0 -1.58 -0.68 -2.56 -1.7 -2.56 c-1.34 0 -2.3 1.54 -2.3 3.6 c0 1.68 0.16 3.2 0.16 4.88 z M44.39000000000001 20 c0.16 -4.32 0.22 -8.52 0 -12.76 c0.82 -0.14 1.52 0.04 2.44 0 c-0.2 4.2 -0.18 8.46 0 12.76 c-0.82 0.16 -1.52 -0.08 -2.44 0 z M54.79200000000001 14.440000000000001 c-0.04 -1.48 -0.4 -2.92 -1.78 -2.92 c-1.24 0 -2.06 1.38 -2.06 3.8 c0 1.32 0.02 3 0.02 4.68 c-1.14 0.12 -1.6 -0.16 -2.36 0 c0.1 -3.16 0.14 -5.6 -0.02 -8.96 l0.52 -0.42 c-0.02 2.18 1.42 3.02 1.42 3.02 c0.52 -1.74 1.6 -3.3 3.22 -3.3 c2.1 0 3.38 1.46 3.38 4.3 c0 1.68 0.04 3.48 0.04 5.36 c-1.12 0.14 -1.46 -0.14 -2.36 0 c0.06 -1.98 0.04 -3.94 -0.02 -5.56 z M62.894000000000005 20 c-0.82 0.08 -0.98 -0.26 -1.84 0 c-0.82 -2.46 -2.6 -7.12 -3.6 -9.38 c1.28 -0.26 1.64 0.38 2.76 0 c0.6 1.96 1.46 4.88 2.28 7.58 c0.92 -2.72 1.84 -5.74 2.4 -7.58 c0.62 0.22 0.88 -0.14 1.64 0 c-0.96 2.12 -2.62 6.54 -3.64 9.38 z M73.85600000000001 17.16 c0.48 0.2 1.08 0.18 1.08 0.18 c-0.34 1.84 -1.88 2.94 -4.04 2.94 c-2.98 0 -4.84 -2.1 -4.84 -5.06 c0 -2.86 1.84 -4.86 4.66 -4.86 c2.58 0 4.22 1.7 4.14 4.72 l-6.32 0.88 c0.06 2.2 0.7 3.64 2.38 3.64 c0.82 0 1.96 -0.36 1.96 -1.72 c0 -0.26 0.02 -0.78 -0.4 -0.74 l0.28 -0.16 s0.64 -0.02 1.1 0.18 z M68.516 15.58 l0 0 l3.92 -1.08 c0.08 -0.52 0.12 -0.92 0.12 -1.52 c0.02 -1.36 -0.62 -2.14 -1.74 -1.94 c-1.26 0.24 -2.22 2.24 -2.3 4.54 z M82.73800000000001 14.440000000000001 c-0.04 -1.48 -0.4 -2.92 -1.78 -2.92 c-1.24 0 -2.06 1.38 -2.06 3.8 c0 1.32 0.02 3 0.02 4.68 c-1.14 0.12 -1.6 -0.16 -2.36 0 c0.1 -3.16 0.14 -5.6 -0.02 -8.96 l0.52 -0.42 c-0.02 2.18 1.42 3.02 1.42 3.02 c0.52 -1.74 1.6 -3.3 3.22 -3.3 c2.1 0 3.38 1.46 3.38 4.3 c0 1.68 0.04 3.48 0.04 5.36 c-1.12 0.14 -1.46 -0.14 -2.36 0 c0.06 -1.98 0.04 -3.94 -0.02 -5.56 z M86.78 11.48 c-0.3 0 -0.8 0.04 -1.14 0.04 c-0.08 -0.36 0.1 -0.58 0 -0.84 c0.4 0 0.78 0.04 1.14 0.04 l-0.02 -1.92 c0.92 0.14 0.84 -0.72 2.26 -0.72 c-0.12 1 -0.1 1.64 -0.12 2.64 l2.38 -0.04 c-0.04 0.24 0.04 0.5 0 0.84 l-2.38 -0.04 c-0.02 2.42 0.04 4.7 0.08 5.9 c0.04 1.26 0.22 1.98 0.8 1.98 c0.4 0 0.76 -0.42 0.76 -0.9 c0 -0.14 0 -0.28 -0.16 -0.44 c0.36 0.14 0.7 -0.1 1.04 0.16 c0 1.42 -0.82 2.1 -2.2 2.1 c-1.68 0 -2.56 -0.88 -2.56 -2.9 c0 -1.78 0.22 -3.62 0.12 -5.9 z M96.34200000000001 10.34 c2.8 0 4.66 2.06 4.66 4.9 c0 2.96 -1.86 5.04 -4.64 5.04 c-2.8 0 -4.66 -2.08 -4.66 -5.04 c0 -2.84 1.86 -4.9 4.64 -4.9 z M97.80200000000002 19.34 c0 0 2.02 -0.44 0.62 -4.74 s-3.46 -3.34 -3.52 -3.32 c0 0 -2.14 0.54 -0.64 4.8 c1.5 4.28 3.54 3.26 3.54 3.26 z M101.88400000000001 20 c0.16 -3.16 0.2 -5.56 0 -8.74 l0.5 -0.64 c-0.02 1.94 1.44 2.7 1.44 2.7 c0.26 -1.48 1.34 -2.98 3 -2.98 c1.2 0 2.26 0.64 2.26 2.3 c0 0.3 -0.08 0.92 -0.08 0.92 c-0.44 -0.04 -2 0.7 -2 0.7 l-0.14 -0.04 c0.54 -0.46 0.4 -2.68 -0.96 -2.7 c-1.2 0 -1.56 1.4 -1.68 3.62 c-0.08 1.46 -0.06 3.12 0.02 4.86 c-1.08 0.08 -1.42 -0.22 -2.36 0 z"></path></g></svg>